<?xml version="1.0" standalone="no"?>
<!DOCTYPE svg PUBLIC "-//W3C//DTD SVG 20010904//EN"
 "http://www.w3.org/TR/2001/REC-SVG-20010904/DTD/svg10.dtd">
<svg version="1.0" xmlns="http://www.w3.org/2000/svg"
 width="1920.000000pt" height="1080.000000pt" viewBox="0 0 1920.000000 1080.000000"
 preserveAspectRatio="xMidYMid meet">

<g transform="translate(0.000000,1080.000000) scale(0.100000,-0.100000)"
fill="#000000" stroke="none">
<path d="M3962 9648 c-9 -9 -12 -81 -12 -264 l0 -252 29 -11 c40 -17 1865 -11
1882 6 14 14 21 489 7 516 -8 16 -64 17 -951 17 -720 0 -946 -3 -955 -12z"/>
<path d="M5993 9653 c-10 -4 -13 -332 -13 -1594 l0 -1589 26 -10 c28 -11 1423
-14 1462 -4 l22 6 0 294 0 294 -450 0 -450 0 2 363 3 362 637 5 c350 3 640 8
643 12 10 10 6 541 -3 550 -5 5 -293 9 -642 10 l-635 3 -3 363 -2 362 427 0
c236 0 438 3 451 6 l22 6 0 284 0 284 -742 -1 c-409 0 -749 -3 -755 -6z"/>
<path d="M8001 9646 c-8 -9 -11 -94 -9 -287 l3 -274 605 -6 c539 -5 612 -7
665 -23 117 -34 201 -98 243 -185 24 -50 27 -67 27 -166 0 -94 -3 -117 -23
-160 -44 -96 -116 -150 -248 -187 -77 -22 -92 -22 -674 -24 l-595 -2 -3 -926
-2 -925 24 -16 c21 -14 61 -16 290 -13 252 3 266 4 280 23 14 17 16 101 16
635 0 338 0 621 0 628 0 9 42 12 175 12 l176 0 30 -67 c17 -38 51 -110 75
-161 24 -51 44 -95 44 -96 0 -2 20 -47 45 -99 25 -53 45 -98 45 -101 0 -3 21
-49 46 -103 26 -54 54 -116 64 -138 10 -22 35 -76 55 -120 21 -44 49 -105 62
-135 14 -30 40 -86 57 -125 18 -38 39 -85 46 -103 7 -18 21 -37 31 -42 19 -11
577 -14 603 -4 25 9 19 54 -15 125 -38 80 -79 168 -89 194 -12 31 -68 150
-116 250 -24 50 -44 96 -44 103 0 7 -4 12 -10 12 -5 0 -10 6 -10 13 0 6 -21
55 -46 107 -61 127 -142 299 -177 380 -8 19 -24 56 -36 82 -11 26 -21 52 -21
57 0 5 -4 11 -8 13 -5 2 -12 16 -16 31 -6 25 -3 29 31 43 233 93 395 248 474
452 5 12 13 32 18 45 23 57 31 89 46 175 8 50 15 120 15 155 0 79 -28 289 -41
302 -5 5 -9 21 -9 36 0 15 -4 31 -10 34 -5 3 -10 13 -10 21 0 12 -20 62 -52
131 -24 50 -118 161 -178 211 -83 69 -258 154 -380 185 -160 41 -264 47 -879
47 -478 0 -581 -2 -590 -14z"/>
<path d="M10311 9646 c-9 -11 -10 -318 -1 -553 0 -9 144 -13 608 -15 581 -3
609 -4 663 -24 189 -69 269 -174 269 -357 0 -68 -5 -97 -22 -135 -49 -107
-132 -172 -269 -209 -57 -16 -124 -17 -651 -18 -322 0 -589 -3 -592 -6 -4 -3
-6 -424 -6 -935 0 -727 3 -930 13 -936 18 -11 521 -10 552 2 l25 10 0 637 -1
638 163 3 c90 1 172 0 183 -2 11 -3 26 -20 33 -38 15 -36 41 -96 77 -173 13
-27 32 -70 43 -95 11 -25 41 -90 67 -145 26 -55 55 -119 66 -142 33 -75 56
-126 99 -218 49 -104 81 -175 103 -225 16 -37 59 -133 85 -190 33 -72 23 -70
343 -70 158 0 294 3 303 6 17 7 21 44 7 72 -5 9 -13 28 -19 42 -21 51 -47 108
-102 225 -31 66 -65 138 -75 160 -10 22 -48 103 -85 180 -84 174 -131 275
-160 340 -25 57 -60 132 -119 258 -22 48 -41 94 -41 101 0 7 46 36 103 63 283
138 435 356 478 688 15 112 1 286 -32 420 -90 356 -376 584 -807 640 -160 21
-1284 22 -1301 1z"/>
<path d="M13820 9628 c-11 -18 -20 -36 -20 -40 0 -5 -47 -128 -104 -275 -57
-148 -154 -398 -215 -558 -62 -159 -116 -299 -121 -310 -5 -11 -38 -96 -74
-190 -142 -373 -357 -927 -610 -1575 l-76 -195 21 -17 c19 -16 49 -18 293 -18
195 0 278 4 295 13 20 10 35 43 82 177 32 91 87 251 124 355 37 105 73 208 80
230 7 22 29 85 48 140 67 188 199 570 255 733 30 89 59 161 65 159 5 -1 20
-34 32 -72 13 -39 46 -135 75 -215 28 -80 85 -242 126 -360 42 -118 88 -251
104 -295 16 -44 35 -100 44 -125 8 -25 35 -101 60 -170 84 -235 147 -415 168
-475 33 -99 19 -95 335 -95 281 0 313 4 313 39 0 10 -43 128 -96 262 -52 134
-212 546 -356 914 -143 369 -279 720 -303 780 -66 168 -252 648 -296 760 -180
465 -173 450 -202 453 -21 3 -31 -4 -47 -30z"/>
<path d="M4610 7493 c0 -618 4 -1014 10 -1023 13 -21 558 -23 583 -1 16 12 17
96 17 1022 l0 1009 -305 0 -305 0 0 -1007z"/>
<path d="M10335 5753 c-284 -33 -433 -80 -570 -178 -199 -142 -291 -352 -311
-715 -5 -101 1 -162 36 -325 16 -78 64 -165 125 -227 121 -125 222 -161 839
-304 168 -38 226 -62 247 -101 15 -29 20 -197 6 -246 -11 -40 -67 -93 -113
-107 -60 -18 -331 -24 -504 -11 -199 15 -324 34 -479 72 -68 17 -129 28 -137
25 -12 -4 -14 -60 -14 -313 0 -169 4 -314 8 -321 15 -22 306 -81 514 -104 155
-17 559 -16 673 1 107 16 297 71 368 108 194 97 315 251 369 468 27 109 39
361 24 520 -19 207 -110 367 -255 454 -93 56 -330 122 -819 231 -187 41 -212
65 -212 200 0 79 4 93 51 168 18 28 102 69 168 82 121 23 428 7 684 -36 86
-14 164 -23 172 -20 13 5 15 48 15 299 0 229 -3 297 -13 305 -57 48 -665 100
-872 75z"/>
<path d="M1710 5712 c-7 -3 -10 -478 -10 -1393 l0 -1389 345 0 345 0 0 390 0
390 238 0 c539 0 813 78 1027 294 73 73 99 108 132 176 88 179 118 324 116
570 -1 332 -71 540 -233 702 -63 61 -96 85 -171 122 -135 65 -290 105 -484
125 -89 10 -1280 21 -1305 13z m1227 -637 c211 -40 284 -144 270 -388 -13
-238 -92 -329 -314 -362 -98 -15 -455 -21 -487 -9 -14 5 -16 49 -16 390 l0
384 234 0 c165 0 257 -4 313 -15z"/>
<path d="M4208 5712 l-28 -3 0 -907 c0 -929 2 -962 40 -1147 48 -234 168 -435
334 -560 341 -255 1128 -284 1513 -56 102 60 121 74 186 138 162 158 250 359
299 683 6 37 12 444 14 956 5 850 4 892 -13 896 -10 2 -163 2 -340 0 l-323 -4
-4 -862 c-2 -554 -7 -886 -14 -931 -6 -38 -14 -90 -18 -114 -7 -50 -43 -122
-81 -162 -40 -43 -119 -80 -201 -95 -90 -16 -282 -18 -366 -4 -126 20 -165 38
-228 100 -32 33 -58 67 -58 79 0 11 -4 22 -9 25 -9 6 -34 130 -51 251 -14 107
-13 1275 1 1513 8 139 8 187 0 195 -9 9 -100 12 -319 12 -169 0 -319 -1 -334
-3z"/>
<path d="M7004 5710 l-29 -5 -3 -1388 -2 -1387 345 0 345 0 0 450 0 450 33 1
c17 0 64 0 102 0 67 -1 71 -3 102 -38 18 -20 38 -49 45 -64 7 -16 16 -29 20
-29 5 0 8 -4 8 -10 0 -5 43 -75 95 -155 52 -80 95 -148 95 -151 0 -4 20 -35
45 -70 25 -34 45 -65 45 -68 0 -3 46 -75 101 -161 l102 -155 408 0 409 0 -22
34 c-66 99 -371 533 -391 556 -7 9 -53 74 -102 145 -49 72 -91 132 -95 135 -3
3 -18 24 -34 48 -35 52 -32 56 64 98 63 27 144 73 185 104 40 30 143 140 158
167 80 149 89 170 116 281 33 131 37 297 12 487 -45 339 -214 551 -515 644
-77 24 -173 47 -256 63 -57 11 -1332 27 -1386 18z m1201 -630 c111 -17 161
-37 208 -84 30 -30 46 -58 55 -92 16 -63 17 -173 2 -267 -20 -122 -89 -195
-223 -234 -39 -12 -120 -17 -319 -20 l-268 -5 0 355 0 356 23 4 c42 8 452 -2
522 -13z"/>
<path d="M11709 5708 c-20 -8 -20 -13 -13 -915 3 -500 10 -912 15 -917 5 -6 9
-41 9 -78 0 -37 5 -89 11 -115 83 -349 230 -551 486 -670 341 -157 863 -174
1229 -39 178 67 329 181 436 332 70 99 127 245 170 429 22 95 30 370 34 1146
l5 827 -23 5 c-18 4 -306 3 -645 -3 l-21 0 -4 -927 c-2 -665 -6 -934 -14 -948
-6 -11 -17 -38 -23 -60 -55 -184 -171 -244 -473 -245 -191 0 -340 40 -400 109
-25 28 -62 101 -73 141 -33 128 -35 171 -35 1052 0 841 -1 877 -18 882 -27 9
-629 2 -653 -6z"/>
<path d="M14520 5712 l-25 -3 -2 -1389 -3 -1390 345 0 345 0 0 1390 0 1390
-292 2 c-161 0 -304 2 -318 2 -14 1 -36 0 -50 -2z"/>
<path d="M16303 5713 l-853 -3 0 -304 0 -304 26 -6 c14 -4 180 -6 368 -6 187
1 349 1 359 0 17 0 18 -43 15 -1080 l-3 -1080 340 0 340 0 0 1080 0 1080 380
2 380 3 3 304 c2 237 -1 306 -10 313 -7 4 -121 7 -253 5 -132 -1 -624 -3
-1092 -4z"/>
</g>
</svg>
